<?xml version="1.0" encoding="utf-8"?>
<!-- Generator: Adobe Illustrator 19.2.1, SVG Export Plug-In . SVG Version: 6.00 Build 0)  -->
<svg version="1.1" id="Layer_1" xmlns="http://www.w3.org/2000/svg" xmlns:xlink="http://www.w3.org/1999/xlink" x="0px" y="0px"
	 viewBox="0 0 103.2 98.3" style="enable-background:new 0 0 103.2 98.3;" xml:space="preserve">
<style type="text/css">
	.st0{fill:#0792d5;}
</style>
<path class="st0" d="M58.9,53.9c-0.7,0-1.3,0.6-1.3,1.3c0,0.7,0.6,1.3,1.3,1.3c4.5,0,8.2,3.7,8.2,8.2c0,0.6-0.5,1.1-1.1,1.1H35
	c-0.6,0-1.1-0.5-1.1-1.1c0-4.5,3.7-8.2,8.2-8.2c0.7,0,1.3-0.6,1.3-1.3c0-0.7-0.6-1.3-1.3-1.3c-6,0-10.9,4.9-10.9,10.9
	c0,2,1.7,3.7,3.7,3.7h31.1c2,0,3.7-1.7,3.7-3.7C69.8,58.8,64.9,53.9,58.9,53.9z M50.6,33.6c4,0,7.3,4.2,7.3,9.5
	c0,5.2-3.3,9.5-7.3,9.5c-4,0-7.3-4.2-7.3-9.5C43.3,37.9,46.5,33.6,50.6,33.6z M50.6,55.2c5.5,0,10-5.4,10-12.1
	c0-6.7-4.5-12.1-10-12.1c-2.7,0-5.2,1.3-7.1,3.7c-1.8,2.3-2.8,5.3-2.8,8.5C40.6,49.8,45.1,55.2,50.6,55.2z"/>
<path class="st0" d="M50.6,18.1c-17.6,0-31.8,14.3-31.8,31.8c0,17.6,14.3,31.8,31.8,31.8c17.6,0,31.8-14.3,31.8-31.8
	C82.4,32.3,68.1,18.1,50.6,18.1z M50.6,84.4c-19,0-34.5-15.5-34.5-34.5s15.5-34.5,34.5-34.5s34.5,15.5,34.5,34.5
	S69.6,84.4,50.6,84.4z"/>
</svg>
