<?xml version="1.0" encoding="utf-8"?>
<!-- Generator: Adobe Illustrator 19.2.1, SVG Export Plug-In . SVG Version: 6.00 Build 0)  -->
<svg version="1.1" id="Layer_1" xmlns="http://www.w3.org/2000/svg" xmlns:xlink="http://www.w3.org/1999/xlink" x="0px" y="0px"
	 viewBox="0 0 103.2 98.3" style="enable-background:new 0 0 103.2 98.3;" xml:space="preserve">
<style type="text/css">
	.st0{fill:#005581;}
</style>
<path class="st0" d="M63,44.9c-0.7,0-1.3,0.6-1.3,1.3s0.6,1.3,1.3,1.3c4.5,0,8,3.8,8,8.3c0,0.2,0,0.3-0.1,0.4
	c-0.3,0.7,0,1.5,0.7,1.8c0.2,0.1,0.4,0.1,0.5,0.1c0.5,0,1-0.3,1.2-0.8c0.2-0.5,0.3-1,0.3-1.5C73.7,49.8,69,44.9,63,44.9z M51.4,25.8
	c1-0.6,2-0.8,3-0.8c4,0,7.3,4.2,7.3,9.5c0,0.9-0.1,1.9-0.3,2.7c-0.2,0.7,0.3,1.4,1,1.6c0.1,0,0.2,0,0.3,0c0.6,0,1.1-0.4,1.3-1
	c0.3-1.1,0.4-2.2,0.4-3.3c0-6.7-4.5-12.1-10-12.1c-1.5,0-3,0.4-4.4,1.2c-0.6,0.4-0.8,1.2-0.5,1.8C50,26,50.8,26.2,51.4,25.8z
	 M56.7,50.2c-0.7,0-1.3,0.6-1.3,1.3c0,0.7,0.6,1.3,1.3,1.3c4.5,0,8.2,3.7,8.2,8.2c0,0.6-0.5,1.1-1.1,1.1H32.8
	c-0.6,0-1.1-0.5-1.1-1.1c0-4.5,3.7-8.2,8.2-8.2c0.7,0,1.3-0.6,1.3-1.3c0-0.7-0.6-1.3-1.3-1.3c-6,0-10.9,4.9-10.9,10.9
	c0,2,1.7,3.7,3.7,3.7h31.1c2,0,3.7-1.7,3.7-3.7C67.6,55,62.7,50.2,56.7,50.2z M48.3,29.9c4,0,7.3,4.2,7.3,9.5c0,5.2-3.3,9.5-7.3,9.5
	c-4,0-7.3-4.2-7.3-9.5C41,34.2,44.3,29.9,48.3,29.9z M48.3,51.5c5.5,0,10-5.4,10-12.1c0-6.7-4.5-12.1-10-12.1
	c-2.7,0-5.2,1.3-7.1,3.7c-1.8,2.3-2.8,5.3-2.8,8.5C38.4,46.1,42.8,51.5,48.3,51.5z"/>
<path class="st0" d="M50.3,14.3c-17.6,0-31.8,14.3-31.8,31.8C18.5,63.7,32.7,78,50.3,78c17.6,0,31.8-14.3,31.8-31.8
	C82.2,28.6,67.9,14.3,50.3,14.3z M50.3,80.7c-19,0-34.5-15.5-34.5-34.5s15.5-34.5,34.5-34.5s34.5,15.5,34.5,34.5
	S69.3,80.7,50.3,80.7z"/>
</svg>
